<?xml version="1.0" encoding="UTF-8" standalone="no"?>
<!-- Created with Inkscape (http://www.inkscape.org/) -->

<svg
   version="1.1"
   id="svg1"
   width="500"
   height="500"
   viewBox="0 0 500 500"
   xmlns="http://www.w3.org/2000/svg"
   xmlns:svg="http://www.w3.org/2000/svg">
  <defs
     id="defs1" />
  <g
     id="g1">
    <path
       style="fill:#000000"
       d="m 57.368411,365.11754 c -1.72315,-1.72315 -0.22733,-6.03224 4.71963,-13.59613 2.9641,-4.53211 15.49607,-24.44019 27.84882,-44.24019 37.789239,-60.57169 53.809279,-85.89771 55.822759,-88.25 2.17193,-2.5374 4.18113,-2.86829 5.77261,-0.95067 1.1431,1.37735 12.12445,18.40051 22.86863,35.45067 3.55248,5.6375 6.98529,10.24191 7.62848,10.23203 1.42087,-0.0218 3.62804,-3.34863 24.20416,-36.48203 8.88042,-14.3 22.21971,-35.675 29.64286,-47.5 7.42316,-11.825 14.33363,-22.94839 15.35661,-24.71864 2.17443,-3.76282 4.34732,-4.87559 5.99104,-3.0681 0.64359,0.70771 13.90297,22.21174 29.46529,47.78674 30.90208,50.78425 38.1673,62.65226 65.80804,107.5 34.34847,55.73119 33.66333,54.54419 32.52472,56.34929 -0.95977,1.52157 -13.79127,1.6705 -164.01261,1.90369 -89.63426,0.13915 -163.272729,-0.0483 -163.641039,-0.41666 z m 337.536339,-9.08632 c -62.24906,-102.30981 -59.31395,-97.32081 -58.62253,-99.64449 0.34458,-1.15803 2.60085,-5.25551 5.01393,-9.10551 17.02801,-27.16774 24.13017,-37.93905 25.63872,-38.88435 2.45799,-1.54024 4.00214,0.33143 14.34238,17.38435 45.13166,74.43031 48.70158,80.25998 71.84519,117.32316 11.32662,18.13892 11.69049,18.89321 10.01012,20.75 -1.64855,1.82163 -3.39695,1.92684 -32.01966,1.92684 h -30.27589 z"
       id="path1" />
  </g>
</svg>
